<svg xmlns="http://www.w3.org/2000/svg" xmlns:xlink="http://www.w3.org/1999/xlink" width="300" height="138.11972957263458" viewBox="284.44000156730954 592.4402703670843 312.1199983724093 138.11972957263458" preserveAspectRatio="xMinYMin meet"><g transform="matrix(1,0,0,-1,0,1323.000270306803)"><path fill-rule="evenodd" fill="#66cc99" stroke="#555555" stroke-width="2.0807999891493956" opacity="0.6" d="M 296.1352288318541,712.500051113481 L 296.11700688423593,712.5306140633623 L 296.0752921707676,712.6193224060228 L 296.04246324057044,712.7116887890818 L 296.018835556269,712.8068256374206 L 296.00463616307167,712.9038187537234 L 296.0000015070284,713.001736103262 L 296.00497612388097,713.0996367700855 L 296.0195122111064,713.1965799985518 L 296.0434700872653,713.2916342333193 L 296.07661953424065,713.38388607093 L 296.11864200947,713.4724490369648 L 296.1352288318541,713.500051113481 L 296.11700688423593,713.5306140633623 L 296.0752921707676,713.6193224060228 L 296.04246324057044,713.7116887890818 L 296.018835556269,713.8068256374206 L 296.00463616307167,713.9038187537234 L 296.0000015070284,714.001736103262 L 296.00497612388097,714.0996367700855 L 296.0195122111064,714.1965799985518 L 296.0434700872653,714.2916342333193 L 296.07661953424065,714.38388607093 L 296.11864200947,714.4724490369648 L 296.1352288318541,714.500051113481 L 296.11700688423593,714.5306140633623 L 296.0752921707676,714.6193224060228 L 296.04246324057044,714.7116887890818 L 296.018835556269,714.8068256374206 L 296.00463616307167,714.9038187537234 L 296.0000015070284,715.001736103262 L 296.00497612388097,715.0996367700855 L 296.0195122111064,715.1965799985518 L 296.0434700872653,715.2916342333193 L 296.07661953424065,715.38388607093 L 296.11864200947,715.4724490369648 L 296.1691337069127,715.5564721044324 L 296.2276094373378,715.635147871531 L 296.29350729064697,715.707720320205 L 296.3661940354303,715.7734920809394 L 296.44497120386865,715.8318311339839 L 296.52908180351164,715.8821768826126 L 296.61771759143596,715.9240455400587 L 296.7100268408834,715.9570347783607 L 296.8051225257486,715.9808275944473 L 296.90209084426715,715.9951953563113 L 297.0,716.0 L 297.00008396678163,716.0 L 297.0000015175485,716.0017421523473 L 297.0049766889397,716.0996424128901 L 297.0195132516098,716.1965851882293 L 297.04347152062684,716.2916389345544 L 297.07662127587247,716.3838902601377 L 297.1186439742762,716.4724527023104 L 297.1691358107638,716.5564752456713 L 297.2276115985063,716.6351504996754 L 297.29350943118374,716.7077224570223 L 297.3661960824629,716.7734937582907 L 297.44497309080447,716.8318323930149 L 297.52908347112856,716.8821777728075 L 297.6177189888461,716.9240461181734 L 297.71002792635744,716.9570351072492 L 297.80512326738847,716.9808277418011 L 297.902091220519,716.9951953933277 L 298.0,717.0 L 298.0000842546871,717.0 L 298.00000152817927,717.0017482437333 L 298.00497725798215,717.0996480951513 L 298.01951429941704,717.1965904141923 L 298.04347296403506,717.2916436686577 L 298.0766230297026,717.3838944786323 L 298.1186459528376,717.4724563932792 L 298.16913792933906,717.5564784088687 L 298.2276137747968,717.635153146191 L 298.2935115866956,717.7077246087757 L 298.3661981438148,717.7734954473661 L 298.4449749909384,717.8318336608459 L 298.5290851504086,717.8821786692242 L 298.6177203960291,717.9240467003284 L 298.7100290194225,717.9570354384363 L 298.8051240142147,717.9808278901847 L 298.90209159940207,717.9951954306026 L 299.0,718.0 L 303.00008602443467,718.0 L 303.00000159437377,718.0017857057444 L 303.0049807583057,718.0996830409754 L 303.0195207440421,718.1966225537324 L 303.0434818415082,718.291672783227 L 303.0766338161783,718.38392042219 L 303.11865812132595,718.4724790925484 L 303.16915095883735,718.556497862349 L 303.2276271591784,718.6351694220924 L 303.29352484323385,718.7077378419106 L 303.3662108212238,718.7735058350563 L 303.4449866768221,718.8318414579084 L 303.5290954780155,718.8821841821153 L 303.61772905022127,718.9240502805342 L 303.71003574177865,718.9570374752088 L 303.80512860719716,718.9808288027311 L 303.9020939295324,718.9951956598406 L 304.0,719.0 L 581.0,719.0 L 581.0988571432332,718.9951016356291 L 581.19674580985,718.9804545304635 L 581.2927070111366,718.9562021782193 L 581.3858006412344,718.9225821726129 L 581.4751146871015,718.8799238797194 L 581.5597741632579,718.8286452112629 L 581.6389496837802,718.7692485304485 L 581.7118655875709,718.7023157304463 L 581.7778075372996,718.6285025337419 L 581.8361295175721,718.5485320682009 L 581.8862601637679,718.4631877827816 L 581.9277083595447,718.3733057722978 L 581.9600680481716,718.2797665864252 L 581.9830222105569,718.1834866031944 L 581.9963459709983,718.0854090514842 L 581.9994223504862,718.0 L 584.0,718.0 L 584.0,717.9876543209876 L 583.9982363371936,717.0 L 585.0,717.0 L 585.0,716.9876543209876 L 584.9982733368839,716.0 L 585.0,716.0 L 585.0,715.9876543209876 L 584.9982793530952,715.0 L 585.0,715.0 L 585.0,714.9876543209876 L 584.9982853275275,714.0 L 585.0,714.0 L 585.0,713.9876543209876 L 584.9982853275275,713.0 L 585.0,713.0 L 585.0,712.9876543209876 L 584.9982853275275,712.0 L 585.0,712.0 L 585.0,711.9876543209876 L 584.9982853275275,711.0 L 585.0,711.0 L 585.0,710.9876543209876 L 584.9982793530952,710.0 L 585.0,710.0 L 585.0,709.9876543209876 L 584.9982733368839,709.0 L 585.0,709.0 L 585.0,708.9876543209876 L 584.9982672784541,708.0 L 585.0,708.0 L 585.0,707.9876543209876 L 584.9982611773597,707.0 L 585.0,707.0 L 585.0,706.9876543209876 L 584.9982550331483,706.0 L 585.0,706.0 L 585.0,705.9876543209876 L 584.9982488453614,705.0 L 585.0,705.0 L 585.0,704.9876543209876 L 584.9982426135339,704.0 L 585.0,704.0 L 585.0,703.9876543209876 L 584.9982363371936,703.0 L 585.0,703.0 L 585.0,702.9876543209876 L 584.9982363371936,702.0 L 585.0,702.0 L 585.0,701.9876543209876 L 584.9982363371936,701.0 L 585.0,701.0 L 585.0,700.9876543209876 L 584.9964600430932,699.0123520230007 L 584.9964157936319,699.0000064232883 L 583.9982300953454,699.0035841498054 L 583.9982236490538,699.0 L 584.0,699.0 L 584.0,698.9876543209876 L 583.9982236490538,698.0 L 584.0,698.0 L 584.0,697.9876543209876 L 583.9982236490538,697.0 L 584.0,697.0 L 584.0,696.9876543209876 L 583.9964473095997,695.0123520687225 L 583.9964029009698,695.0000064695816 L 582.9982237291109,695.0035970421422 L 582.9964344841695,694.0123521149405 L 582.9963899152216,694.0000065163773 L 581.9982173169132,694.0036100275626 L 581.9964215658031,693.0123521616617 L 581.9963768353757,693.0000065636825 L 580.9982108582528,693.0036231070779 L 580.9964085534868,692.0123522088934 L 580.9963636604054,692.0000066115047 L 579.998204352623,692.0036362817148 L 579.9963954461921,691.0123522566435 L 579.9963503892695,691.0000066598515 L 578.9981977995096,691.0036495525148 L 578.9963822428753,690.012352304919 L 578.9963370209111,690.0000067087304 L 577.9981911983907,690.0036629205346 L 577.9981844651036,690.0 L 578.0,690.0 L 578.0,689.9876543209876 L 577.9963689424769,688.0123523537279 L 577.9963235542579,688.0000067581495 L 576.9981845487368,688.0036763868463 L 576.9981777657583,688.0 L 577.0,688.0 L 577.0,687.9876543209876 L 576.9963555439227,686.0123524030781 L 576.9963099882218,686.0000068081166 L 575.9981710763122,686.0036899775332 L 575.9981642176417,686.0 L 576.0,686.0 L 576.0,685.9876543209876 L 575.9981642176417,685.0 L 576.0,685.0 L 576.0,684.9876543209876 L 575.9963284479682,683.012352503435 L 575.9962825535678,683.0000069097279 L 574.9981643031535,683.0037173864952 L 574.9981573677551,683.0 L 575.0,683.0 L 575.0,682.9876543209876 L 574.9981573677551,682.0 L 575.0,682.0 L 575.0,681.9876543209876 L 574.9981504665591,681.0 L 575.0,681.0 L 575.0,680.9876543209876 L 574.9981504665591,680.0 L 575.0,680.0 L 575.0,679.9876543209876 L 574.9981504665591,679.0 L 575.0,679.0 L 575.0,678.9876543209876 L 574.9981435134748,678.0 L 575.0,678.0 L 575.0,677.9876543209876 L 574.9981365079151,677.0 L 575.0,677.0 L 575.0,676.9876543209876 L 574.9981223369747,676.0 L 575.0,676.0 L 575.0,675.9876543209876 L 574.998115170374,675.0 L 575.0,675.0 L 575.0,674.9876543209876 L 574.9981079488575,674.0 L 575.0,674.0 L 575.0,673.9876543209876 L 574.9981079488575,673.0 L 575.0,673.0 L 575.0,672.9876543209876 L 574.9981006717915,672.0 L 575.0,672.0 L 575.0,671.9876543209876 L 574.9980933385325,671.0 L 575.0,671.0 L 575.0,670.9876543209876 L 574.9980933385325,670.0 L 575.0,670.0 L 575.0,669.9876543209876 L 574.9980933385325,669.0 L 575.0,669.0 L 575.0,668.9876543209876 L 574.9961866912764,667.0123530405847 L 574.9961390249174,667.000007453592 L 573.9980934307856,667.0038609114845 L 573.9980859484272,667.0 L 574.0,667.0 L 574.0,666.9876543209876 L 573.9980785008119,666.0 L 574.0,666.0 L 574.0,665.9876543209876 L 573.9980785008119,665.0 L 574.0,665.0 L 574.0,664.9876543209876 L 573.9980785008119,664.0 L 574.0,664.0 L 574.0,663.9876543209876 L 573.9980785008119,663.0 L 574.0,663.0 L 574.0,662.9876543209876 L 573.9961570161696,661.0123531556063 L 573.9961089788718,661.0000075700514 L 572.9980710597006,661.0038909860792 L 572.9980634303455,661.0 L 573.0,661.0 L 573.0,660.9876543209876 L 572.9980558061145,660.0 L 573.0,660.0 L 573.0,659.9876543209876 L 572.9980481216136,659.0 L 573.0,659.0 L 573.0,658.9876543209876 L 572.9960651534554,657.012353517321 L 572.9960159678736,657.0000079362875 L 571.9980247663498,657.0039839968513 L 571.9980167663883,657.0 L 572.0,657.0 L 572.0,656.9876543209876 L 571.9980087695435,656.0 L 572.0,656.0 L 572.0,655.9876543209876 L 571.9960014322803,654.0123537732458 L 571.9959514501838,654.0000081954114 L 570.9979926495715,654.0040485144422 L 570.9979843873316,654.0 L 571.0,654.0 L 571.0,653.9876543209876 L 570.9959687914528,652.0123539059342 L 570.995918401346,652.0000083297584 L 569.9979844904478,652.0040815293947 L 569.9959522703832,651.0123539735054 L 569.995901673763,651.0000083981743 L 568.9979678681166,651.0040982908204 L 568.9959188186413,650.0123541111692 L 568.9958678038743,650.0000085375589 L 567.9979595063028,650.0041321255653 L 567.9979509334651,650.0 L 568.0,650.0 L 568.0,649.9876543209876 L 567.9959018845697,648.01235418129 L 567.9958506581268,648.0000086085561 L 566.9979510400386,648.0041492708718 L 566.9958848093845,647.0123542522889 L 566.9958333695018,647.0000086804425 L 565.9979425032268,647.004166559052 L 565.9979337866142,647.0 L 566.0,647.0 L 566.0,646.9876543209876 L 565.9979337866142,646.0 L 566.0,646.0 L 566.0,645.9876543209876 L 565.9958675913145,644.012354324181 L 565.995815936206,644.0000087532333 L 564.997933894982,644.0041839918995 L 564.9979251051219,644.0 L 565.0,644.0 L 565.0,643.9876543209876 L 564.9979251051219,643.0 L 565.0,643.0 L 565.0,642.9876543209876 L 564.9979251051219,642.0 L 565.0,642.0 L 565.0,641.9876543209876 L 564.9979163503689,641.0 L 565.0,641.0 L 565.0,640.9876543209876 L 564.9958150616329,639.0123545453674 L 564.9957627499033,639.0000089771845 L 563.9978986909908,639.0042372147223 L 563.9978896371546,639.0 L 564.0,639.0 L 564.0,638.9876543209876 L 563.9978805798866,638.0 L 564.0,638.0 L 564.0,637.9876543209876 L 563.9978622301,637.0 L 564.0,637.0 L 564.0,636.9876543209876 L 563.9978435597977,636.0 L 564.0,636.0 L 564.0,635.9876543209876 L 563.9978341018175,635.0 L 564.0,635.0 L 564.0,634.9876543209876 L 563.9978245605081,634.0 L 564.0,634.0 L 564.0,633.9876543209876 L 563.9978245605081,633.0 L 564.0,633.0 L 564.0,632.9876543209876 L 563.9978245605081,632.0 L 564.0,632.0 L 564.0,631.9876543209876 L 563.9978149347637,631.0 L 564.0,631.0 L 564.0,630.9876543209876 L 563.9978149347637,630.0 L 564.0,630.0 L 564.0,629.9876543209876 L 563.9955908728606,628.012355520765 L 563.9955357587713,628.0000099647746 L 562.997755285721,628.0044643418864 L 562.9977450932128,628.0 L 563.0,628.0 L 563.0,627.9876543209876 L 562.9977031419081,627.0 L 563.0,627.0 L 563.0,626.9876543209876 L 562.9953413050304,625.0123566664395 L 562.9952830713432,625.0000111247699 L 561.9976257692495,625.0047170554402 L 561.9976143754623,625.0 L 562.0,625.0 L 562.0,624.9876543209876 L 561.9975184721457,624.0 L 562.0,624.0 L 562.0,623.9876543209876 L 561.9946901072733,622.0123599528144 L 561.9946237336142,622.0000144522246 L 560.9972865460077,622.0053764801149 L 560.9945434295706,621.0123607522963 L 560.9944752224403,621.0000152617 L 559.997225645322,621.005524927872 L 559.9972100383056,621.0 L 560.0,621.0 L 560.0,620.9876543209876 L 559.9941212093765,619.012363175258 L 559.9940477244937,619.0000177149487 L 558.9968126937176,619.005953637751 L 558.9935867954603,618.0123665008854 L 558.9935066304035,618.0000210821465 L 557.9967075521168,618.0064938034341 L 557.9966857610755,618.0 L 558.0,618.0 L 558.0,617.9876543209876 L 557.996617661857,617.0 L 558.0,617.0 L 558.0,616.9876543209876 L 557.9929455062379,615.0123708733116 L 557.9928573250659,615.000025509228 L 556.9961996314019,615.0071444927542 L 556.9961719399854,615.0 L 557.0,615.0 L 557.0,614.9876543209876 L 556.9960494459239,614.0 L 557.0,614.0 L 557.0,613.9876543209876 L 556.9919047447191,612.0123788557308 L 556.9918035540281,612.0000335914275 L 555.995666210205,612.0081986516228 L 555.9956299336957,612.0 L 556.0,612.0 L 556.0,611.9876543209876 L 555.9949610785058,611.0 L 556.0,611.0 L 556.0,610.9876543209876 L 555.9945734917258,610.0 L 556.0,610.0 L 556.0,609.9876543209876 L 555.9942580177994,609.0 L 556.0,609.0 L 556.0,608.9876543209876 L 555.9873388056048,607.0124268371801 L 555.9871805406749,607.0000821726449 L 554.9917394908109,607.0128442373867 L 554.9832625002042,606.0124875120455 L 554.9830532814567,606.000143605946 L 553.9904843702781,606.0169668078304 L 553.9806379506821,605.0125354847835 L 553.9803959250655,605.0001921783432 L 550.9892013288461,605.0588430527789 L 550.977037503458,604.0126126486945 L 550.9767504722512,604.0002703068031 L 519.0021151396141,604.7438664773296 L 518.8734270979581,604.51304506928 L 518.8626440473661,604.5190568585482 L 518.72683197162,604.7502684114689 L 507.97675047225124,605.0002703068031 L 507.87959307442947,605.0072753794357 L 507.7835781734936,605.0237000496714 L 507.6896168194085,605.0493884698753 L 507.59860057679083,605.0840968921074 L 507.5113930651812,605.1274959809565 L 507.4288217644772,605.1791739384832 L 507.35167016328194,605.238640411618 L 507.28067032466976,605.3053311449407 L 507.21649593990986,605.3786133346922 L 507.15975593605856,605.4577916332155 L 507.11098869807495,605.542114746853 L 507.07065696028485,605.6307825646952 L 507.03914341566554,605.7229537505377 L 507.0167470846132,605.8177537260096 L 507.00368047764886,605.9142829691255 L 507.0034196910954,605.9213093594014 L 502.9803959250656,606.0001921783432 L 502.88310046450005,606.0068562548151 L 502.7869168139728,606.0229659392669 L 502.6927597585403,606.0483680154451 L 502.6015248086848,606.0828208888629 L 502.51407968327834,606.125996884561 L 502.4312560568679,606.1774853635645 L 502.3538416497712,606.2367966283947 L 502.2825727362135,606.3033665804917 L 502.2181271417582,606.3765620852524 L 502.1611177966323,606.4556869936581 L 502.1120869062597,606.5399887632193 L 502.07150079444455,606.6286656152698 L 502.0397454682513,606.7208741605368 L 502.0171229467622,606.8157374204606 L 502.0058117982467,606.898062953119 L 495.9830532814567,607.000143605946 L 495.8856579408179,607.0065585606076 L 495.7893519374368,607.0224380358574 L 495.6950527789948,607.0476307478707 L 495.6036588539537,607.0818966855791 L 495.51604087260483,607.1249093972559 L 495.43303357180883,607.1762591006244 L 495.3554277624543,607.2354565868537 L 495.28396279539896,607.3019378812547 L 495.21931951767135,607.3750696162682 L 495.1621137860384,607.4541550655607 L 495.11289059973535,607.5384407817386 L 495.0721189082561,607.6271237744451 L 495.0401871436693,607.7193591604519 L 495.0252321925571,607.7816456130054 L 477.98718054067496,608.0000821726449 L 477.8896313465887,608.0061092814881 L 477.79313641278685,608.0216302047359 L 477.6986174754074,608.0464966838704 L 477.60697739553206,608.0804711900232 L 477.5190915349025,608.1232291928916 L 477.435799394315,608.1743622607071 L 477.3578965945649,608.2333819616467 L 477.286127276541,608.2997245294163 L 477.2211769930636,608.3727562484437 L 477.1636661603669,608.4517795072377 L 477.11414413177704,608.5360394620931 L 477.07308395019453,608.6247312474866 L 477.04087782950774,608.7170076642907 L 477.01783340809874,608.8119872723643 L 477.00417081022846,608.9087628102202 L 477.00375723521427,608.918493360556 L 469.98837287903785,609.0000675972557 L 469.89077952690513,609.0059824507299 L 469.79423026219155,609.0213995631503 L 469.6996480425602,609.0461715554346 L 469.6079370218093,609.0800616210136 L 469.519973906661,609.1227457895719 L 469.4365995759292,609.1738160240257 L 469.3586110421825,609.2327841211303 L 469.2867538327437,609.2990863784358 L 469.2217148628609,609.3720889829694 L 469.16411586917616,609.4510940701388 L 469.1145074662672,609.5353463949313 L 469.07336388307556,609.62404055164 L 469.0410784295401,609.7163286730973 L 469.01795973677093,609.8113285358171 L 469.0042288067064,609.9081319935635 L 469.00216653472785,609.9559597706116 L 464.9890116524584,610.0000603737134 L 464.89139469686035,610.0059150498423 L 464.79481637148973,610.0212765055485 L 464.7002002884092,610.0459978338965 L 464.6084512940769,610.079842616239 L 464.5204468159857,610.1224871831696 L 464.4370284715194,610.1735237098862 L 464.3589940192734,610.2324641163615 L 464.2870897298122,610.298744735021 L 464.22200324882493,610.3717317012923 L 464.16435702093065,610.4507270154721 L 464.11470233702465,610.5349752179395 L 464.0735140620917,610.623670613879 L 464.04118609390787,610.7159649784193 L 464.0180275960588,610.810975668503 L 464.0042600413012,610.907794063908 L 464.0029174927292,610.9386936795842 L 457.9897964495671,611.0000520575757 L 457.8921505457799,611.0058327629496 L 457.7955365605704,611.0211257987174 L 457.7008789099864,611.0457848389859 L 457.6090832915937,611.0795739426283 L 457.5210280186362,611.1221698108014 L 457.43755561621225,611.1731648803143 L 457.35946475987777,611.2320712232495 L 457.28750263380704,611.298325215525 L 457.222357781631,611.3712929297279 L 457.1646535183556,611.4502762006205 L 457.1149419663974,611.5345193052817 L 457.0736987727995,611.6232161939695 L 457.0413185581744,611.7155182025168 L 457.01811114091913,611.8105421724686 L 457.00877590256306,611.8759893752682 L 442.9911507889826,612.0000391550344 L 442.89345506115853,612.0056921120663 L 442.79677965147556,612.020866970251 L 442.7020503634058,612.0454184089072 L 442.6101743635606,612.0791113133638 L 442.52203149428993,612.1216230265146 L 442.4384658479507,612.1725464387156 L 442.36027768353085,612.2313938864338 L 442.2882157630406,612.2976018223143 L 442.22297018105957,612.3705362119412 L 442.16516575610694,612.4494986056117 L 442.1153560471228,612.533732826978 L 442.07401805236015,612.622432214503 L 442.04154764145323,612.714747346382 L 442.0182557644074,612.8097941749559 L 442.0043654738139,612.9066624927152 L 442.00276580201586,612.9425666877555 L 434.9918035540281,613.0000335914275 L 434.8940838719088,613.0056249330307 L 434.7973789085967,613.0207427849035 L 434.702615136262,613.0452423119872 L 434.61070042968987,613.0788887990278 L 434.5225153684775,613.1213598992421 L 434.43890480073037,613.172248722528 L 434.36066974907925,613.2310677336347 L 434.28855973656414,613.2972534229451 L 434.22326560590375,613.3701717051227 L 434.1654129009467,613.4491239939026 L 434.1155558737113,613.5333538948267 L 434.07417217443015,613.6220544518048 L 434.04165827546984,613.7143758780765 L 434.01832567296776,613.8094336975071 L 434.0043979025743,613.906317218223 L 434.00091239622714,613.9839607013422 L 431.9920002559877,614.0000319984641 L 431.8942733632085,614.0056047675733 L 431.7975595009128,614.0207054353621 L 431.70278534277196,614.0451893132516 L 431.61085897698547,614.0788218064852 L 431.52266120534176,614.1212806619209 L 431.4390371037268,614.1721590557331 L 431.3607879249436,614.2309694914361 L 431.28866342142754,614.2971484708811 L 431.22335466141726,614.3700618934707 L 431.1654874074144,614.4490111318584 L 431.11561612037667,614.5332397259166 L 431.0742186470943,614.6219406308368 L 431.0416916416522,614.7142639499104 L 431.0183467648489,614.8093250779011 L 431.004407697987,614.9062131769786 L 431.00123609359963,614.9767045581057 L 427.99224829492186,615.0000300449171 L 427.8945123146307,615.0055793906824 L 427.79778723517904,615.0206583855755 L 427.7029999843282,615.0451225258229 L 427.6110589194008,615.0787373687041 L 427.5228451223868,615.1211807792441 L 427.43920395643113,615.1720460172705 L 427.3609369646201,615.230845635252 L 427.2887941886998,615.2970161495647 L 427.2234669813385,615.3699234404229 L 427.165581380813,615.4488688287221 L 427.11569211161054,615.5330957715631 L 427.07427726843895,615.6217971122913 L 427.0417337345893,615.7141228155731 L 427.0183733785567,615.8091881133844 L 427.0044200653681,615.9060819838456 L 427.0030851729526,615.9356667388859 L 417.9928573250659,616.000025509228 L 417.89509905535994,616.0055173245281 L 417.7983464541559,616.0205430854558 L 417.7035270730964,616.0449587424549 L 417.6115499303532,616.0785302265449 L 417.5232967960159,616.1209356933015 L 417.4396137387039,616.1717686083282 L 417.3613030144423,616.230541644636 L 417.2891153755626,616.2966913545687 L 417.2237428733604,616.3695835714854 L 417.16581222351095,616.4485194894139 L 417.11587879784685,616.5327423623918 L 417.074421300097,616.6214447592677 L 417.0418371766316,616.7137763044144 L 417.0184388062069,616.8088518301436 L 417.00445050524087,616.9057598626656 L 417.00172626237315,616.9657181446593 L 411.9931508455872,617.0000234557332 L 411.8953818456832,617.00548753563 L 411.79861599091953,617.0204876310701 L 411.703781133614,617.0448799116357 L 411.6117866104574,617.078430488688 L 411.52351452321733,617.1208176580395 L 411.4398112805876,617.1716349846577 L 411.3614794822855,617.2303951998216 L 411.2892702232172,617.296534873363 L 411.2238758915042,617.3694198161918 L 411.1659235294268,617.4483511613026 L 411.1159688209462,617.5325720649547 L 411.0744907634541,617.6212749637689 L 411.0418870748427,617.7136093181571 L 411.01847037993304,617.8086897678345 L 411.0044652128308,617.9056046212152 L 411.0007751560568,617.986549457564 L 408.99328874175,618.0000225207473 L 408.89551470351506,618.0054735685673 L 408.7987426245727,618.0204616042053 L 408.7039004984975,618.0448429002463 L 408.6118978116262,618.0783836528254 L 408.52361682156027,618.1207622236848 L 408.4399040967771,618.1715722245162 L 408.36156239848174,618.230326414012 L 408.28934298254694,618.2964613702541 L 408.2239383953629,618.3693428936355 L 408.16597583267975,618.4482720885022 L 408.11601112512875,618.5324920651968 L 408.0745234080976,618.6211951982343 L 408.0419105270728,618.7135308710069 L 408.01848522250964,618.8086136327528 L 408.0044721308152,618.9055316895651 L 408.0010495703999,618.9804915825362 L 404.99350663040354,619.0000210821465 L 404.8957246346914,619.0054515355249 L 404.7989427240402,619.0204205127793 L 404.7040891152222,619.0447844493152 L 404.61207353103583,619.078309675283 L 404.52377847532904,619.12067465666 L 404.4400507690734,619.1714730790223 L 404.3616934286665,619.2302177444286 L 404.28945796435556,619.2963452440421 L 404.22403717264626,619.3692213616765 L 404.1660584918245,619.4481471564429 L 404.11607798431567,619.5323656661573 L 404.07457500359646,619.6210691672197 L 404.0419475968075,619.7134069213379 L 404.01850868715945,619.8084933347934 L 404.00448307274644,619.9054164520034 L 404.00342498701735,619.9285333264813 L 391.9940477244937,620.0000177149487 L 391.8962459863817,620.0053970115378 L 391.79943967639576,620.0203186453771 L 391.70455756558187,620.0446394565688 L 391.6125099639943,620.0781261084095 L 391.5241799870746,620.1204573260496 L 391.4404150829393,620.1712269788427 L 391.3620189018631,620.2299479768093 L 391.2897435859647,620.2960569438359 L 391.22428255306727,620.3689196227705 L 391.16626384396693,620.4478369605604 L 391.1162440969359,620.5320518150487 L 391.0747032072699,620.6207562190841 L 391.0420397231169,620.713099132253 L 391.01856702175917,620.8081946058597 L 391.0045103030354,620.9051302828226 L 391.0022241855314,620.9547737343405 L 382.99435037265124,621.000015959272 L 382.89653760379537,621.0053666340949 L 382.79971765672803,621.0202617783441 L 382.70481961251204,621.0445584586996 L 382.61275410969284,621.0780235250072 L 382.52440460584086,621.120335847579 L 382.44061889992116,621.171089398744 L 382.3622009968425,621.2297971490761 L 382.289903392252,621.2958957409128 L 382.22441985161163,621.3687508943168 L 382.1663787528474,621.4476634936059 L 382.116337056455,621.5318762960441 L 382.0747749609254,621.6205811983184 L 382.0420912947754,621.7129269910722 L 382.0185996894021,621.8080275270817 L 382.00452556948665,621.904970224697 L 382.0006459629367,621.9889314454542 L 379.9944752224403,622.0000152617 L 379.89665790557785,622.0053541275809 L 379.7998323349932,622.0202383423068 L 379.70492771963785,622.0445250660734 L 379.612854833573,622.0779812257268 L 379.52449727551556,622.1202857515034 L 379.4407029891791,622.1710326582507 L 379.36227612578614,622.2297349415574 L 379.2899693268453,622.2958292514031 L 379.2244765012531,622.368681298478 L 379.166426166037,622.447591941286 L 379.11637541464665,622.5318038956174 L 379.07480457067777,622.6205090020023 L 379.04211257833606,622.7128559813996 L 379.01861317387676,622.8079586046921 L 379.00453187476245,622.90490419759 L 379.00087884029296,622.9838517903607 L 375.9946237336141,623.0000144522246 L 375.8968010086729,623.0053392698065 L 375.79996875041604,623.0202104822005 L 375.70505631992086,623.0444853608755 L 375.6129746524505,623.0779309243044 L 375.5246075146261,623.1202261740367 L 375.4408030223534,623.1709651755258 L 375.36236550091235,623.2296609541421 L 375.29004776533316,623.2957501689801 L 375.22454389514957,623.3685985196008 L 375.16648257287363,623.447506833819 L 375.11642105012777,623.5317177781052 L 375.07483979934506,623.6204231261995 L 375.0421379023678,623.7127715161763 L 375.01862922020433,623.8078766215078 L 375.004539380704,623.9048256577075 L 375.00292434759854,623.9396711713842 L 362.99497493781763,624.0000126257047 L 362.89713943171523,624.0053042156055 L 362.8002913651773,624.0201446733435 L 362.70536045903134,624.0443915336824 L 362.6132580297729,624.0778120319236 L 362.5248682411214,624.1200853383964 L 362.4410396162367,624.1708056383554 L 362.362576892077,624.2294860277154 L 362.29023329409574,624.295563187227 L 362.2247033054372,624.3684027902216 L 362.1666160000462,624.4473055920122 L 362.11652900369234,624.531514142494 L 362.07492314088097,624.6202200575037 L 362.04219781904044,624.7125717791359 L 362.01866719429574,624.8076827505173 L 362.0045571556366,624.9046399265644 L 362.00169446197225,624.9661637202569 L 354.995169138496,625.0000116686795 L 354.89732656982204,625.0052848816191 L 354.8004697661863,625.0201083295617 L 354.7055286473411,625.044339692954 L 354.61341474059674,625.0777463270813 L 354.5250124292707,625.1200074956838 L 354.44117046174586,625.1707174503375 L 354.3626938026579,625.2293893260347 L 354.2903359044503,625.2954598155623 L 354.2247914734963,625.3682945778007 L 354.1666898002401,625.4471943280175 L 354.1165887173952,625.5314015516815 L 354.0749692442065,625.6201077773419 L 354.04223096819635,625.7124613387422 L 354.01868820873494,625.8075755516463 L 354.00456699926775,625.9045372268722 L 354.0007761005661,625.9858342708585 L 350.99528307134324,626.0000111247699 L 350.89743636083875,626.0052735552314 L 350.8005744327496,626.0200870226765 L 350.70562732353176,626.0443092930509 L 350.61350668417884,626.0777077920607 L 350.52509702684785,626.1199618382756 L 350.44124723206414,626.1706657222061 L 350.36276239804863,626.229332601793 L 350.29039611042907,626.2953991769052 L 350.2248432065581,626.3682310979632 L 350.16673310391275,626.4471290567545 L 350.1166237566345,626.5313355009631 L 350.0749962982366,626.6200419079372 L 350.0422504219179,626.7123965478587 L 350.01870054283995,626.8075126617738 L 350.0045727792156,626.9044769759614 L 350.00054783716797,626.9906843097395 L 347.9953488875185,627.0000108164821 L 347.897499784924,627.0052670177835 L 347.800634897034,627.0200747193181 L 347.7056843277215,627.0442917364325 L 347.61355979942977,627.0776855355231 L 347.5251458987456,627.1199354668424 L 347.44129158253287,627.1706358434009 L 347.36280202618553,627.229299836404 L 347.2904308922736,627.295364149819 L 347.2248730938187,627.3681944291842 L 347.16675812168774,627.4470913527294 L 347.11664400017435,627.5312973463143 L 347.0750119288084,627.6200038577126 L 347.0422616618421,627.7123591203906 L 347.0187076697796,627.8074763322326 L 347.0045761198083,627.9044421706814 L 347.0007520516503,627.9862875107546 L 343.99543383755696,628.0000104249741 L 343.897581648039,628.0052585857713 L 343.80071294039215,628.0200588446887 L 343.705757905505,628.0442690808459 L 343.61362835804346,628.0776568131699 L 343.5252089806644,628.1199014328166 L 343.4413488287667,628.170597281847 L 343.36285317735747,628.2292575485958 L 343.2904757883225,628.2953189423268 L 343.2249116723568,628.3681471022846 L 343.1667904150592,628.447042689204 L 343.116670131277,628.5312481007807 L 343.0750321057558,628.6199547466191 L 343.0422761715573,628.7123108127977 L 343.0187168706249,628.8074294414924 L 343.0045804333647,628.9043972471127 L 343.00073634290226,628.9865938907383 L 339.9955357587713,629.0000099647746 L 339.8976798665031,629.0052484781207 L 339.80080657674927,629.0200398068628 L 339.7058461847981,629.044241906651 L 339.61371061596384,629.077622359453 L 339.5252846681695,629.1198606055146 L 339.4414175150398,629.1705510217646 L 339.3629145511018,629.2292068171018 L 339.2905296574064,629.2952647071559 L 339.2249579618439,629.3680903236293 L 339.1668291636801,629.4469843062751 L 339.11670148641684,629.5311890190047 L 339.0750563170503,629.6198958256326 L 339.0422935832071,629.7122528553857 L 339.0187279125518,629.8073731836034 L 339.0045856113494,629.9043433490688 L 339.0003146888072,629.995564039525 L 337.99557526455396,630.0000097891898 L 337.8977179373153,630.0052445628935 L 337.80084287170786,630.0200324300007 L 337.7058804034863,630.0442313758307 L 337.6137425008538,630.0776090067909 L 337.52531400641305,630.1198447821592 L 337.4414441396157,630.1705330923838 L 337.36293834131834,630.2291871543379 L 337.29055053876357,630.2952436861217 L 337.22497590527064,630.3680683165176 L 337.16684418416673,630.4469616771478 L 337.11671364107247,630.5311661188305 L 337.0750657026205,630.6198729876329 L 337.04230033309494,630.7122303907464 L 337.01873219339,630.8073513776046 L 337.00458761917736,630.9043224576768 L 337.00000244730046,631.0022123731374 L 337.005020711271,631.1000810421625 L 337.01959421839496,631.1969885869674 L 337.0435830125891,631.292004359885 L 337.07675671844356,631.3842158808026 L 337.1187967536226,631.4727376001271 L 337.13522981057065,631.5000644467069 L 337.11671364107247,631.5311661188305 L 337.0750657026205,631.6198729876329 L 337.04230033309494,631.7122303907464 L 337.01873219339,631.8073513776046 L 337.00458761917736,631.9043224576768 L 337.0001065515306,631.9999898273832 L 336.9955947564015,632.0000097031326 L 336.89773672121225,632.0052426316877 L 336.80086077945793,632.0200287908096 L 336.70589728685894,632.0442261804574 L 336.61375823277984,632.0776024190976 L 336.52532848186786,632.1198369753994 L 336.4414572761858,632.170524246482 L 336.36295007944915,632.229177453154 L 336.29056084169173,632.2952333147354 L 336.2249847586476,632.368057458568 L 336.1668515953841,632.4469505122631 L 336.11671963830344,632.5311548201792 L 336.0750703335954,632.6198617196274 L 336.0423036636311,632.712219306927 L 336.0187343057007,632.8073406187299 L 336.00458860998555,632.9043121500424 L 336.0000024257861,633.0022026271423 L 336.0050197968828,633.1000719511394 L 336.01959253855796,633.1969802262888 L 336.04358070034164,633.2919967863539 L 336.0767539100368,633.3842091323326 L 336.1187935861171,633.4727316957129 L 336.13522979338023,633.5000641768366 L 336.11671963830344,633.5311548201792 L 336.0750703335954,633.6198617196274 L 336.0423036636311,633.712219306927 L 336.0187343057007,633.8073406187299 L 336.00458860998555,633.9043121500424 L 336.0000024257861,634.0022026271423 L 336.0050197968828,634.1000719511394 L 336.01959253855796,634.1969802262888 L 336.04358070034164,634.2919967863539 L 336.0767539100368,634.3842091323326 L 336.1187935861171,634.4727316957129 L 336.13522979338023,634.5000641768366 L 336.11671963830344,634.5311548201792 L 336.0750703335954,634.6198617196274 L 336.0423036636311,634.712219306927 L 336.0187343057007,634.8073406187299 L 336.00458860998555,634.9043121500424 L 336.00010609163184,634.999989916388 L 335.9956140772728,635.0000096182054 L 335.8977553403773,635.005240717772 L 335.80087853019114,635.0200251838638 L 335.7059140222253,635.044221030951 L 335.61377382682,635.0775958894548 L 335.52534283047413,635.1198292373535 L 335.44147029766333,635.1705154783797 L 335.36296171476164,635.229167837243 L 335.2905710543947,635.2952230344731 L 335.224993534515,635.3680466959843 L 335.1668589417397,635.4469394454122 L 335.1167255830708,635.5311436207128 L 335.07507492408394,635.6198505505178 L 335.04230696507915,635.7122083203702 L 335.01873639959916,635.8073299542524 L 335.00458959220794,635.9043019328343 L 335.0001056356834,635.9999900042297 L 334.9956332294078,636.0000095343881 L 334.89777379696807,636.0052388209155 L 334.80089612596356,636.0200216087363 L 334.70593061152306,636.0442159267069 L 334.61378928477933,636.0775894170985 L 334.52535705389204,636.1198215671184 L 334.44148320555416,636.1705067870549 L 334.36297324860095,636.2291583054855 L 334.29058117805255,636.295212844139 L 334.22500223388624,636.3680360275152 L 334.16686622408133,636.4469284753095 L 334.1167314760599,636.5311325191307 L 334.07507947461477,636.6198394790077 L 334.0423102378186,636.7121974298014 L 334.018738475325,636.807319382935 L 334.00459056595565,636.9042918048677 L 334.00030812148896,636.9956602917164 L 332.9956710362338,637.0000093700075 L 332.89781023086994,637.0052350774755 L 332.8009308606724,637.0200145522675 L 332.70596335949585,637.044205851639 L 332.6138197995184,637.0775766412563 L 332.5253851316591,637.119806426546 L 332.44150868646926,637.1704896307394 L 332.3629960171236,637.2291394900506 L 332.29060116285063,637.2951927285767 L 332.2250194071064,637.3680149680267 L 332.1668806000404,637.4469068203178 L 332.116743109386,637.5311106045315 L 332.075088457872,637.619817623714 L 332.04231669865635,637.7121759316396 L 332.0187425731971,637.8072985149406 L 332.00459248846187,637.9042718120227 L 332.0003055705348,637.9956976331185 L 330.9957081940337,638.0000092098417 L 330.89784603944236,638.0052313995997 L 330.80096499933205,638.0200076181372 L 330.7059955456186,638.0441959506238 L 330.6138497908209,638.0775640857214 L 330.52541272788403,638.1197915467654 L 330.4415337304655,638.1704727697103 L 330.36301839531905,638.2291209982766 L 330.29062080512426,638.2951729588917 L 330.22503628607046,638.3679942705223 L 330.16689472975486,638.4468855374429 L 330.11675454353184,638.5310890664226 L 330.07509728741644,638.6197961438182 L 330.0423230490507,638.7121548026796 L 330.01874660115317,638.8072780052731 L 330.00459437835553,638.9042521624337 L 330.0001034134522,638.9999904266845 L 329.9957265347491,639.0000091312943 L 329.8978637142394,639.0052295847127 L 329.8009818499173,639.0200041959591 L 329.70601143248524,639.0441910639827 L 329.61386459437415,639.0775578887962 L 329.5254263492728,639.1197842025756 L 329.4415460921157,639.1704644475559 L 329.3630294411673,639.2291118711639 L 329.2906305005544,639.2951632009775 L 329.2250446175597,639.3679840546104 L 329.1669017042391,639.4468750325647 L 329.11676018750387,639.5310784355333 L 329.0751016457738,639.619785541635 L 329.0423261837128,639.7121443736908 L 329.01874858946945,639.8072678819403 L 329.0045953113309,639.9042424636096 L 329.0001029764912,639.9999905863939 L 328.99576274990335,640.0000089771845 L 328.8978986145771,640.0052260020011 L 328.80101512286376,640.0199974394569 L 328.70604280256117,640.0441814157101 L 328.61389382541813,640.0775456531894 L 328.52545324608394,640.1197697015282 L 328.4415705015068,640.1704480153645 L 328.3630512524264,640.2290938494444 L 328.29064964531943,640.2951439336186 L 328.22506106912004,640.3679638828305 L 328.1669154762824,640.4468542901349 L 328.1167713323356,640.5310574442261 L 328.075110252042,640.6197646069576 L 328.0423323736772,640.7121237809522 L 328.01875251585926,640.807247892703 L 328.0045971538398,640.9042233125638 L 328.00010212440424,640.9999906674276 L 327.99578062827675,641.0000089015884 L 327.89791584390804,641.0052242337717 L 327.80103154883705,641.0199941043842 L 327.70605828917456,641.0441766530174 L 327.6139082560797,641.0775396131668 L 327.5254665244229,641.1197625430847 L 327.44158255189353,641.1704399035331 L 327.3630620202004,641.2290849528717 L 327.29065909672767,641.295134422074 L 327.22506919097185,641.3679539247657 L 327.16692227533116,641.4468440503252 L 327.1167768343997,641.5310470815242 L 327.0751145008817,641.6197542721862 L 327.04233542964636,641.7121136149635 L 327.01875445435417,641.8072380246258 L 327.0045980635689,641.904213858261 L 327.00010170182884,641.9999907456602 L 326.9957983564157,642.0000088269434 L 326.8979329284875,642.0052224806959 L 326.8010478368346,642.0199907976087 L 326.7060736457269,642.0441719305943 L 326.6139225655707,642.0775336241226 L 326.5254796912878,642.1197554449928 L 326.4415945011347,642.1704318600398 L 326.36307269761323,642.2290761312073 L 326.29066846883967,642.2951249905823 L 326.2250772447004,642.3679440504837 L 326.16692901737036,642.4468338966454 L 326.11678229034885,642.531036805966 L 326.07511871413146,642.619744024307 L 326.0423384600421,642.7121035344338 L 326.01875637665745,642.8072282394913 L 326.004598965742,642.9042044834132 L 326.00000220673826,643.0021008264281 L 326.0050102507082,643.0999769913745 L 326.01957499627014,643.1968928948979 L 326.0435565516038,643.2919176767856 L 326.07672457808684,643.384138640716 L 326.11876050265704,643.4726700205457 L 326.1352296067318,643.5000613505204 L 326.11678229034885,643.531036805966 L 326.07511871413146,643.619744024307 L 326.0423384600421,643.7121035344338 L 326.01875637665745,643.8072282394913 L 326.004598965742,643.9042044834132 L 326.00000220673826,644.0021008264281 L 326.0050102507082,644.0999769913745 L 326.01957499627014,644.1968928948979 L 326.0435565516038,644.2919176767856 L 326.07672457808684,644.384138640716 L 326.11876050265704,644.4726700205457 L 326.1352296067318,644.5000613505204 L 326.11678229034885,644.531036805966 L 326.07511871413146,644.619744024307 L 326.0423384600421,644.7121035344338 L 326.01875637665745,644.8072282394913 L 326.004598965742,644.9042044834132 L 326.00000220673826,645.0021008264281 L 326.0050102507082,645.0999769913745 L 326.01957499627014,645.1968928948979 L 326.0435565516038,645.2919176767856 L 326.07672457808684,645.384138640716 L 326.11876050265704,645.4726700205457 L 326.1352295251254,645.500061214793 L 326.11678770076037,645.5310266164569 L 326.0751228922367,645.6197338622288 L 326.0423414651841,645.7120935382901 L 326.0187582829712,645.8072185362583 L 326.00459986045286,645.9041951870231 L 326.0000021883107,646.002092036475 L 326.0050094268717,646.0999687920595 L 326.0195734819514,646.196885354222 L 326.0435544667951,646.2919108460001 L 326.07672204568087,646.3841325540335 L 326.1187576462781,646.4726646951134 L 326.1352295900089,646.500061105848 L 326.11678770076037,646.5310266164569 L 326.0751228922367,646.6197338622288 L 326.0423414651841,646.7120935382901 L 326.0187582829712,646.8072185362583 L 326.00459986045286,646.9041951870231 L 326.0000021883107,647.002092036475 L 326.0050094268717,647.0999687920595 L 326.0195734819514,647.196885354222 L 326.0435544667951,647.2919108460001 L 326.07672204568087,647.3841325540335 L 326.1187576462781,647.4726646951134 L 326.1352295900089,647.500061105848 L 326.11678770076037,647.5310266164569 L 326.0751228922367,647.6197338622288 L 326.0423414651841,647.7120935382901 L 326.0187582829712,647.8072185362583 L 326.00459986045286,647.9041951870231 L 326.0000021883107,648.002092036475 L 326.0050094268717,648.0999687920595 L 326.0195734819514,648.196885354222 L 326.0435544667951,648.2919108460001 L 326.07672204568087,648.3841325540335 L 326.1187576462781,648.4726646951134 L 326.13522950900455,648.5000609711202 L 326.11679306620204,648.5310165119205 L 326.07512703563526,648.6197237848784 L 326.0423444453868,648.712083625477 L 326.018760173494,648.8072089139029 L 326.0046007477937,648.9041859681097 L 326.00000217011296,649.0020833197701 L 326.0050086099671,649.0999606610642 L 326.0195719803091,649.1968778763724 L 326.0435523994078,649.2919040721221 L 326.0767195344176,649.3841265180561 L 326.11875481373363,649.4726594140418 L 326.1352294929214,649.5000607293758 L 326.11679838723217,649.5310064912984 L 326.07513114475785,649.6197137912005 L 326.0423474009592,649.712073794957 L 326.0187620484213,649.8071993714178 L 326.0046016278551,649.9041768257086 L 326.00000215214135,650.0020746754016 L 326.0050077999073,650.0999525975383 L 326.0195704911846,650.1968704605672 L 326.0435503492243,650.2918973544433 L 326.07671704403316,650.3841205321526 L 326.1187520047266,650.4726541767791 L 326.13522955669623,650.5000606222981 L 326.11679838723217,650.5310064912984 L 326.07513114475785,650.6197137912005 L 326.0423474009592,650.712073794957 L 326.0187620484213,650.8071993714178 L 326.0046016278551,650.9041768257086 L 326.00000215214135,651.0020746754016 L 326.0050077999073,651.0999525975383 L 326.0195704911846,651.1968704605672 L 326.0435503492243,651.2918973544433 L 326.07671704403316,651.3841205321526 L 326.1187520047266,651.4726541767791 L 326.1352294768765,651.5000604895372 L 326.1168036643998,651.5309965535496 L 326.07513522002796,651.6197038801575 L 326.04235033220556,651.7120640457096 L 326.01876390794524,651.807189907813 L 326.0046025007263,651.9041677588714 L 326.0000996369795,651.999991193407 L 325.995901673763,652.0000083981743 L 325.89803249582496,652.0052122698322 L 325.8011427622893,652.0199715315308 L 325.70616314325457,652.0441444138271 L 325.61400596129795,652.0774987251573 L 325.52555642820073,652.1197140821424 L 325.4416641420853,652.1703849870171 L 325.36313492663726,652.2290247226204 L 325.29072309080163,652.2950700275361 L 325.225124183301,652.367886506476 L 325.1669683115727,652.4467747239361 L 325.11681408929957,652.530976922593 L 325.07514327067037,652.61968430191 L 325.04235612291126,652.7120447870338 L 325.01876758153617,652.8071712133637 L 325.0046042252479,652.9041498481713 L 325.0000020995458,653.0020491674209 L 325.00500540994705,653.0999288034823 L 325.0195660973725,653.1968485777917 L 325.04354429977576,653.2918775316953 L 325.07670969558217,653.3841028687318 L 325.1187437160326,653.4726387224594 L 325.1352294289785,653.5000597812326 L 325.11681923808555,653.5309672273878 L 325.0751472468557,653.6196746327138 L 325.0423589829542,653.7120352756472 L 325.018769395972,653.8071619806187 L 325.0046050770694,653.9041410024882 L 325.00000208244177,654.0020408035768 L 325.0050046264239,654.0999210016072 L 325.0195646567863,654.1968414025998 L 325.04354231630396,654.2918710319624 L 325.07670728616296,654.3840970770201 L 325.1187409983014,654.4726336550916 L 325.1352294906195,654.5000596777484 L 325.11681923808555,654.5309672273878 L 325.0751472468557,654.6196746327138 L 325.0423589829542,654.7120352756472 L 325.018769395972,654.8071619806187 L 325.0046050770694,654.9041410024882 L 325.0000984397992,654.9999914059797 L 324.99595145018384,655.0000081954114 L 324.89808046590883,655.0052073539824 L 324.8011884963004,655.0199622527695 L 324.7062062624434,655.0441311597439 L 324.6140461409576,655.0774819141662 L 324.5255933999266,655.1196941566667 L 324.4416976952239,655.1703624065402 L 324.36316490892216,655.2289999566979 L 324.2907494081825,655.2950435488582 L 324.22514679898416,655.3678587840716 L 324.16698724429983,655.4467462166051 L 324.1168294109008,655.5309480726506 L 324.0751551029375,655.6196555293192 L 324.0423646338444,655.7120164839995 L 324.0187729810244,655.8071437394526 L 324.0046067602518,655.9041235260157 L 324.0000976606653,655.9999914766875 L 323.99596777471555,656.0000081294534 L 323.8980961980889,656.0052057422984 L 323.80120349518734,656.0199592101987 L 323.70622040381676,656.044126813397 L 323.6140593183208,656.0774764012639 L 323.525605525248,656.119687622304 L 323.44170869941206,656.1703550014086 L 323.3631747420344,656.2289918347923 L 323.29075803936905,656.2950348652023 L 323.2251542161735,656.367849692489 L 323.1669934536341,656.4467368675652 L 323.1168344359335,656.5309386112168 L 323.07515898360816,656.6196460932246 L 323.0423674252473,656.7120072018739 L 323.01877475199234,656.8071347292218 L 323.0046075917759,656.9041148934931 L 323.0000972741324,656.9999915449873 L 322.9959839681297,657.0000080642885 L 322.8981118039334,657.0052041438053 L 322.8012183736492,657.0199561922927 L 322.7062344316701,657.0441225021668 L 322.61407238992126,657.077470932827 L 322.52561755326775,657.1196811405904 L 322.4417196153116,657.170347655899 L 322.3631844962694,657.2289837782456 L 322.29076660133495,657.295026251398 L 322.22516157389333,657.367840674016 L 322.1669996131987,657.4467275936856 L 322.1168394207054,657.5309292258305 L 322.07516283320444,657.6196367329597 L 322.04237019431855,657.711997994329 L 322.01877650881755,657.8071257913774 L 322.00460841669513,657.904106330314 L 322.0000968875788,657.9999916776433 L 321.99601596787363,658.0000079362875 L 321.8981426426538,658.0052009857492 L 321.8012477750528,658.019950229285 L 321.70626215224104,658.0441139833673 L 321.6140982208864,658.0774601272157 L 321.5256413220498,658.1196683325852 L 321.44174118646123,658.1703331408895 L 321.36320377187394,658.228967858099 L 321.29078352090914,658.2950092299994 L 321.22517611376276,658.3678228528994 L 321.1670117853932,658.4467092678111 L 321.11684927138634,658.5309106795618 L 321.07517044065474,658.6196182362925 L 321.0423756665295,658.7119797994147 L 321.0187799807123,658.8071081293859 L 321.00461004703135,658.904089408671 L 321.00028220312106,658.9960385040316 L 319.9960474617048,659.00000781131 L 319.8981729939089,659.0051978785555 L 319.8012767117942,659.0199443614138 L 319.7062894347902,659.0441056000352 L 319.6141236437587,659.0774494931475 L 319.5256647153845,659.1196557277016 L 319.4417624169389,659.1703188559102 L 319.3632227431193,659.2289521901208 L 319.29080017338333,659.2949924781061 L 319.22519042415666,659.3678053138617 L 319.16702376553866,659.4466912319305 L 319.1168589667081,659.5308924267121 L 319.07517792819226,659.6196000322067 L 319.04238105256223,659.711961892264 L 319.01878339802664,659.8070907466919 L 319.0046116518728,659.9040727545867 L 319.00009538644804,659.9999918744774 L 318.9960630226375,660.0000077499254 L 318.89818799033446,660.0051963436497 L 318.80129100934516,660.0199414624458 L 318.7063029150382,660.0441014581636 L 318.61413620517027,660.0774442391705 L 318.525676274028,660.1196494999263 L 318.4417729069378,660.1703117979799 L 318.36323211685107,660.22894444883 L 318.2908084014266,660.2949842012317 L 318.2251974949913,660.3677966480378 L 318.1670296850077,660.4466823205954 L 318.11686375725327,660.5308834081519 L 318.0751816278762,660.6195910377209 L 318.0423837138954,660.7119530444751 L 318.01878508661684,660.8070821580194 L 318.0046124449191,660.9040645259038 L 318.0000950176641,660.999991938061 L 317.9960784615265,661.0000076892616 L 317.89820286916574,661.0051948210057 L 317.801305194802,661.0199385864206 L 317.7063162896181,661.0440973489647 L 317.61414866813317,661.0774390265698 L 317.52568774209766,661.1196433211455 L 317.4417833147516,661.1703047955361 L 317.3632414171575,661.2289367683669 L 317.2908165650327,661.2949759893678 L 317.225204510465,661.3677880502582 L 317.1670355581445,661.4466734792147 L 317.11686851031715,661.5308744603728 L 317.07518529862995,661.6195821138145 L 317.0423863544365,661.7119442661037 L 317.0187867620377,661.8070736367225 L 317.00461323181275,661.904056361765 L 317.00009464885983,661.9999920616078 L 316.9961089788718,662.0000075700514 L 316.89823227953485,662.0051918119199 L 316.8013332346653,662.0199329021177 L 316.7063427267048,662.0440892270506 L 316.61417330330653,662.0774287235565 L 316.5257104107409,662.1196311082731 L 316.4418038876574,662.1702909545114 L 316.3632598009185,662.2289215870784 L 316.2908327019374,662.2949597576318 L 316.22521837791027,662.3677710556515 L 316.1670471675803,662.446656003047 L 316.1168779057468,662.5308567738507 L 316.0751925546935,662.6195644744432 L 316.0423915741094,662.7119269143718 L 316.01879007398276,662.8070567931094 L 316.0046147874263,662.9040402241061 L 316.0000018925146,663.001945514246 L 316.00499570405896,663.0998321143663 L 316.01954824788686,663.196759654854 L 316.043519721717,663.2917969795178 L 316.07667983820124,663.3840310909495 L 316.1187100372315,663.4725759214385 L 316.1352292970506,663.5000570124703 L 316.1168779057468,663.5308567738507 L 316.0751925546935,663.6195644744432 L 316.0423915741094,663.7119269143718 L 316.01879007398276,663.8070567931094 L 316.0046147874263,663.9040402241061 L 316.0000018925146,664.001945514246 L 316.00499570405896,664.0998321143663 L 316.01954824788686,664.196759654854 L 316.043519721717,664.2917969795178 L 316.07667983820124,664.3840310909495 L 316.1187100372315,664.4725759214385 L 316.1352292970506,664.5000570124703 L 316.1168779057468,664.5308567738507 L 316.0751925546935,664.6195644744432 L 316.0423915741094,664.7119269143718 L 316.01879007398276,664.8070567931094 L 316.0046147874263,664.9040402241061 L 316.0000018925146,665.001945514246 L 316.00499570405896,665.0998321143663 L 316.01954824788686,665.196759654854 L 316.043519721717,665.2917969795178 L 316.07667983820124,665.3840310909495 L 316.1187100372315,665.4725759214385 L 316.1352292970506,665.5000570124703 L 316.1168779057468,665.5308567738507 L 316.0751925546935,665.6195644744432 L 316.0423915741094,665.7119269143718 L 316.01879007398276,665.8070567931094 L 316.0046147874263,665.9040402241061 L 316.0000018925146,666.001945514246 L 316.00499570405896,666.0998321143663 L 316.01954824788686,666.196759654854 L 316.043519721717,666.2917969795178 L 316.07667983820124,666.3840310909495 L 316.1187100372315,666.4725759214385 L 316.1352292970506,666.5000570124703 L 316.1168779057468,666.5308567738507 L 316.0751925546935,666.6195644744432 L 316.0423915741094,666.7119269143718 L 316.01879007398276,666.8070567931094 L 316.0046147874263,666.9040402241061 L 316.0000939282165,666.9999921243975 L 315.99612406012204,667.0000075114832 L 315.8982468137643,667.0051903251924 L 315.80134709163696,667.0199300933102 L 315.70635579162945,667.0440852135831 L 315.6141854777691,667.0774236321931 L 315.5257216133861,667.1196250730565 L 315.4418140546289,667.1702841146572 L 315.3632688860519,667.2289140848579 L 315.29084067670914,667.2949517362692 L 315.2252252311471,667.3677626572647 L 315.1670529049378,667.4466473666572 L 315.11688254896865,667.5308480334861 L 315.07519614066376,667.6195557573616 L 315.04239415371546,667.7119183394215 L 315.01879171080685,667.8070484692503 L 315.00461555628556,667.9040322491081 L 315.00000187787253,668.0019379735783 L 315.0049949983317,668.099825080291 L 315.01954694966895,668.1967531857342 L 315.04351793395205,668.291791119345 L 315.07667766632375,668.3840258690956 L 315.11870758730635,668.4725713526321 L 315.1352292105411,668.5000566834192 L 315.1168871564215,668.5308393606592 L 315.0751996990247,668.6195471076256 L 315.042396713478,668.7119098307087 L 315.01879333506133,668.807040209681 L 315.0046163192709,668.9040243356983 L 315.00000186339975,669.0019304911386 L 315.0049942981032,669.0998181005272 L 315.01954566151795,669.1967467665597 L 315.0435161600275,669.291785304413 L 315.0766755112465,669.3840206875522 L 315.1187051563226,669.472566819093 L 315.13522926549905,669.5000565911857 L 315.1168871564215,669.5308393606592 L 315.0751996990247,669.6195471076256 L 315.042396713478,669.7119098307087 L 315.01879333506133,669.807040209681 L 315.0046163192709,669.9040243356983 L 315.00000186339975,670.0019304911386 L 315.0049942981032,670.0998181005272 L 315.01954566151795,670.1967467665597 L 315.0435161600275,670.291785304413 L 315.0766755112465,670.3840206875522 L 315.1187051563226,670.472566819093 L 315.13522926549905,670.5000565911857 L 315.1168871564215,670.5308393606592 L 315.0751996990247,670.6195471076256 L 315.042396713478,670.7119098307087 L 315.01879333506133,670.807040209681 L 315.0046163192709,670.9040243356983 L 315.00000186339975,671.0019304911386 L 315.0049942981032,671.0998181005272 L 315.01954566151795,671.1967467665597 L 315.0435161600275,671.291785304413 L 315.0766755112465,671.3840206875522 L 315.1187051563226,671.472566819093 L 315.13522926549905,671.5000565911857 L 315.1168871564215,671.5308393606592 L 315.0751996990247,671.6195471076256 L 315.042396713478,671.7119098307087 L 315.01879333506133,671.807040209681 L 315.0046163192709,671.9040243356983 L 315.0000932156848,671.9999922450558 L 314.9961538746014,672.0000073963677 L 314.8982755468868,672.0051873866709 L 314.8013744859257,672.0199245410895 L 314.7063816201463,672.0440772797908 L 314.6142095459472,672.0774135674303 L 314.5257437603839,672.1196131423146 L 314.4418341541995,672.1702705931559 L 314.363286846925,672.2288992538577 L 314.29085644248914,672.2949358789153 L 314.2252387797393,672.3677460545159 L 314.1670642475178,672.446630293351 L 314.11689172851715,672.53083075459 L 314.075203230094,672.6195385244581 L 314.0423992536251,672.7119013874691 L 314.0187949468905,672.8070320136593 L 314.0046170764494,672.904016483166 L 314.0000928634554,672.9999923043478 L 313.9961686104973,673.0000073397997 L 313.89828974834893,673.0051859346044 L 313.8013880256912,673.0199217971707 L 313.7063943860463,673.0440733587483 L 313.6142214418123,673.0774085931233 L 313.5257547067138,673.1196072457159 L 313.4418440885927,673.1702639102937 L 313.36329572426723,673.2288919237463 L 313.2908642349035,673.2949280415014 L 313.2252454763024,673.3677378486655 L 313.1670698537507,673.4466218549046 L 313.116896265661,673.5308222145109 L 313.0752067341845,673.6195300070934 L 313.04240177438135,673.7118930089498 L 313.01879654643636,673.8070238804547 L 313.00461782788705,673.9040086908113 L 313.0000018349516,674.0019156982665 L 313.00499291388724,674.0998043014371 L 313.01954311495183,674.1967340757512 L 313.04351265306167,674.291773808192 L 313.07667125071873,674.3840104435438 L 313.11870035030773,674.4725578561957 L 313.1352292341558,674.5000561760694 L 313.116896265661,674.5308222145109 L 313.0752067341845,674.6195300070934 L 313.04240177438135,674.7118930089498 L 313.01879654643636,674.8070238804547 L 313.00461782788705,674.9040086908113 L 313.0000925138765,674.9999923629623 L 312.9961832339079,675.0000072838782 L 312.89830384142505,675.0051844938225 L 312.8014014621387,675.0199190743824 L 312.7064070545499,675.0440694678053 L 312.614233246934,675.0774036569393 L 312.52576556955773,675.1196013942633 L 312.4418539472311,675.1702572785625 L 312.3633045339279,675.2288846496903 L 312.2908719679203,675.2949202639994 L 312.2252521218334,675.3677297055243 L 312.16707541727317,675.4466134809292 L 312.1169007682523,675.5308137396655 L 312.07521021160414,675.6195215547777 L 312.0424042759679,675.7118846944096 L 312.01879813383874,675.807015809348 L 312.004618573649,675.9040009579453 L 312.0000921669183,675.9999924209097 L 311.9961977461163,676.0000072285934 L 311.8983178273512,676.0051830641945 L 311.8014147964463,676.0199163724816 L 311.70641962676746,676.044065606617 L 311.61424496234673,676.0773987584416 L 311.52577634986704,676.1195955874404 L 311.4418637309778,676.1702506973778 L 311.36331327667807,676.228877431049 L 311.290879642216,676.2949125457247 L 311.22525871691346,676.3677216243763 L 311.16708093857125,676.4466051706885 L 311.1169052366843,676.5308053293095 L 311.07521366265627,676.6195131667687 L 311.0424067586026,676.7118764431184 L 311.0187997092354,676.8070077996304 L 311.0046193137992,676.9039932838891 L 311.000269820536,676.9962182769575 L 309.9962264419619,677.0000071198955 L 309.8983454826048,677.0051802378857 L 309.8014411632652,677.0199110303882 L 309.70644448670214,677.0440579721487 L 309.61426812810447,677.0773890727918 L 309.525797666616,677.1195841056563 L 309.44188307718406,677.1702376843539 L 309.3633305644732,677.2288631574967 L 309.2908948172996,677.2948972841724 L 309.2252717580012,677.3677056452494 L 309.1670918564028,677.446588738523 L 309.1169140726135,677.530788699143 L 309.0752204868486,677.6194965807572 L 309.04241166787165,677.7118601274179 L 309.01880282455244,677.8069919615826 L 309.00462077751587,677.9039781095433 L 309.0000911414769,677.9999925908493 L 308.9962406280694,678.0000070664636 L 308.89835915431206,678.0051788409529 L 308.8014541980448,678.0199083897278 L 308.7064567765572,678.0440541982043 L 308.614279580441,678.0773842847993 L 308.5258082048876,678.1195784297008 L 308.4418926413056,678.1702312513892 L 308.36333911100274,678.2288561013526 L 308.29090231939017,678.294889739577 L 308.22527820512784,678.367697745892 L 308.1670972538725,678.4465806151812 L 308.1169184408678,678.530780477899 L 308.07522386057286,678.6194883813255 L 308.04241409492533,678.7118520616032 L 308.01880436473806,678.8069841318884 L 308.0046215012057,678.9039706079471 L 308.0000908047125,678.9999926462273 L 307.9962547079162,679.000007013631 L 307.89837272363,679.0051774546696 L 307.8014671352216,679.0199057690187 L 307.70646897440264,679.044050452685 L 307.6142909470522,679.0773795328121 L 307.52581866428915,679.119572796386 L 307.44190213386014,679.1702248667198 L 307.3633475935915,679.2288490981564 L 307.2909097653655,679.2948822515735 L 307.22528460404175,679.3676899057699 L 307.1671026109906,679.4465725527396 L 307.1169227764772,679.5307723182768 L 307.0752272090981,679.6194802433415 L 307.0424165038663,679.7118440562258 L 307.0188058934486,679.8069763608548 L 307.00462221953063,679.9039631625473 L 307.00000175340926,680.0018726493254 L 307.00498888675014,680.0997641444073 L 307.0195357050897,680.1966971438685 L 307.04350244817874,680.2917403526424 L 307.07665885274554,680.3839806320465 L 307.11868636477686,680.472531772868 L 307.13522914139025,680.500054966407 L 307.1169227764772,680.5307723182768 L 307.0752272090981,680.6194802433415 L 307.0424165038663,680.7118440562258 L 307.0188058934486,680.8069763608548 L 307.00462221953063,680.9039631625473 L 307.00000175340926,681.0018726493254 L 307.00498888675014,681.0997641444073 L 307.0195357050897,681.1966971438685 L 307.04350244817874,681.2917403526424 L 307.07665885274554,681.3839806320465 L 307.11868636477686,681.472531772868 L 307.13522914139025,681.500054966407 L 307.1169227764772,681.5307723182768 L 307.0752272090981,681.6194802433415 L 307.0424165038663,681.7118440562258 L 307.0188058934486,681.8069763608548 L 307.00462221953063,681.9039631625473 L 307.0000904704263,681.9999927009867 L 306.9962686826917,682.0000069613886 L 306.8983861917045,682.0051760789146 L 306.80147997588796,682.0199031680356 L 306.70648108126795,682.0440467352709 L 306.6143022288971,682.0773748164253 L 306.5258290457027,682.1195672052332 L 306.44191155564795,682.170218529804 L 306.3633560129545,682.2288421473143 L 306.29091715585275,682.2948748195278 L 306.2252909552817,682.3676821242194 L 306.1671079282079,682.4465645505157 L 306.1169270798064,682.5307642195861 L 306.07523053270546,682.6194721661169 L 306.04241889489657,682.7118361106092 L 306.0188074108119,682.8069686478253 L 306.0046229325501,682.9039557727147 L 306.0000017403487,683.0018656619011 L 306.0049882332444,683.0997576263642 L 306.0195345025003,683.1966911492992 L 306.0435007918989,683.2917349223216 L 306.076656840478,683.3839757932004 L 306.1186840948093,683.4725275391529 L 306.135229126115,683.500054769834 L 306.1169270798064,683.5307642195861 L 306.07523053270546,683.6194721661169 L 306.04241889489657,683.7118361106092 L 306.0188074108119,683.8069686478253 L 306.0046229325501,683.9039557727147 L 306.0000017403487,684.0018656619011 L 306.0049882332444,684.0997576263642 L 306.0195345025003,684.1966911492992 L 306.0435007918989,684.2917349223216 L 306.076656840478,684.3839757932004 L 306.1186840948093,684.4725275391529 L 306.13522906006557,684.5000546599425 L 306.11693135121436,684.5307561811468 L 306.07523383167205,684.619464148974 L 306.04242126821504,684.7118282240865 L 306.01880891695384,684.8069609921527 L 306.0046236403226,684.9039484378294 L 306.00000172743347,685.0018587264269 L 306.0049875846395,685.0997511567774 L 306.0195333088882,685.1966851992913 L 306.04349914796376,685.291729532365 L 306.07665484319637,685.38397099032 L 306.1186818417387,685.4725233369039 L 306.1352291108932,685.5000545746594 L 306.11693135121436,685.5307561811468 L 306.07523383167205,685.619464148974 L 306.04242126821504,685.7118282240865 L 306.01880891695384,685.8069609921527 L 306.0046236403226,685.9039484378294 L 306.00000172743347,686.0018587264269 L 306.0049875846395,686.0997511567774 L 306.0195333088882,686.1966851992913 L 306.04349914796376,686.291729532365 L 306.07665484319637,686.38397099032 L 306.1186818417387,686.4725233369039 L 306.1352291108932,686.5000545746594 L 306.11693135121436,686.5307561811468 L 306.07523383167205,686.619464148974 L 306.04242126821504,686.7118282240865 L 306.01880891695384,686.8069609921527 L 306.0046236403226,686.9039484378294 L 306.0000898067369,686.9999928604468 L 305.9963099882218,687.0000068081166 L 305.8984259996728,687.0051720136338 L 305.8015179295036,687.0198954812412 L 305.7065168660492,687.0440357485312 L 305.61433557521053,687.0773608769124 L 305.52585973064157,687.1195506800657 L 305.4419394042368,687.1701998002793 L 305.3633808986791,687.2288216031077 L 305.2909390005204,687.2948528529328 L 305.2253097282266,687.3676591245066 L 305.16712364486386,687.4465408984802 L 305.11693979967725,687.5307402823531 L 305.0752403567712,687.6194482922713 L 305.04242596249827,687.7118126257058 L 305.0188118960677,687.8069458503379 L 305.0046250403568,687.9039339304682 L 305.0000017020306,688.0018450090294 L 305.0049863019137,688.0997383608277 L 305.01953094819686,688.1966734309871 L 305.0434958965795,688.2917188717579 L 305.0766508929264,688.3839614908638 L 305.1186773855393,688.472515025412 L 305.1352290806098,688.5000541884464 L 305.11693979967725,688.5307402823531 L 305.0752403567712,688.6194482922713 L 305.04242596249827,688.7118126257058 L 305.0188118960677,688.8069458503379 L 305.0046250403568,688.9039339304682 L 305.0000017020306,689.0018450090294 L 305.0049863019137,689.0997383608277 L 305.01953094819686,689.1966734309871 L 305.0434958965795,689.2917188717579 L 305.0766508929264,689.3839614908638 L 305.1186773855393,689.472515025412 L 305.13522901586936,689.5000540807295 L 305.11694397742434,689.5307324206885 L 305.07524358343767,689.619440451405 L 305.0424282838465,689.7118049125629 L 305.01881336928227,689.806938362949 L 305.00462573273137,689.9039267567978 L 305.0000016895388,690.0018382259768 L 305.00498566768533,690.0997320334116 L 305.0195297809217,690.1966676117222 L 305.0434942888614,690.2917136002302 L 305.0766489396118,690.3839567935067 L 305.1186751820428,690.4725109154853 L 305.1352290655484,690.5000539973788 L 305.11694397742434,690.5307324206885 L 305.07524358343767,690.619440451405 L 305.0424282838465,690.7118049125629 L 305.01881336928227,690.806938362949 L 305.00462573273137,690.9039267567978 L 305.0000016895388,691.0018382259768 L 305.00498566768533,691.0997320334116 L 305.0195297809217,691.1966676117222 L 305.0434942888614,691.2917136002302 L 305.0766489396118,691.3839567935067 L 305.1186751820428,691.4725109154853 L 305.13522900123576,691.5000538903727 L 305.11694812463486,691.5307246166545 L 305.07524678653164,691.6194326680074 L 305.0424305882502,691.7117972559444 L 305.0188148317607,691.8069309304233 L 305.0046264200848,691.903919635686 L 305.000001677184,692.0018314926162 L 305.0049850381431,692.0997257523456 L 305.01952862223203,692.196661835082 L 305.0434926929501,692.2917083673125 L 305.07664700063066,692.3839521305523 L 305.11867299470794,692.4725068356573 L 305.1352289866515,692.5000537013491 L 305.11695224164237,692.5307168696197 L 305.0752499663105,692.6194249414488 L 305.04243287589424,692.7117896552311 L 305.01881628361997,692.8069235521597 L 305.00462710247143,692.9039125665573 L 305.00000166496426,693.0018248084035 L 305.0049844132352,693.0997195171224 L 305.01952747203353,693.1966561005997 L 305.0434911087159,693.2917031725822 L 305.07664507582575,693.3839475016239 L 305.1186708233575,693.4725027855987 L 305.13522897211675,693.500053513645 L 305.1169563287756,693.530709178962 L 305.07525312302784,693.6194172711089 L 305.0424351469607,693.7117821098129 L 305.01881772497524,693.8069162275664 L 305.00462777994505,693.9039055488446 L 305.00000165287753,694.0018181728025 L 305.0049837929107,694.0997133272416 L 305.0195263302332,694.1966504078155 L 305.0434895360312,694.2916980156226 L 305.07664316504224,694.3839429063503 L 305.11866866781685,694.472498764985 L 305.13522895763157,694.5000533272466 L 305.1169603863586,694.5307015440682 L 305.07525625693364,694.6194096563762 L 305.0424374016293,694.7117746190886 L 305.01881915594015,694.8069089560597 L 305.0046284525584,694.9038985819889 L 305.000001640922,695.0018115852848 L 305.0049831771193,695.0997071822106 L 305.0195251967393,695.1966447562763 L 305.0434879747701,695.2916928960235 L 305.07664126812733,695.383938344366 L 305.118666527914,695.4724947734958 L 305.13522894319607,695.5000531421402 L 305.11696441471065,695.5306939643339 L 305.0752593682743,695.6194020966485 L 305.0424396400768,695.7117671824658 L 305.0188205766266,695.8069017370647 L 305.0046291203637,695.9038916654393 L 305.00000162909566,696.0018050453298 L 305.00498256581153,696.0997010815439 L 305.01952407146166,696.1966391455354 L 305.0434864248086,696.2916878133802 L 305.07663938493073,696.3839338153106 L 305.11866440347944,696.4724908108162 L 305.1352289288102,696.5000529583127 L 305.11696841414647,696.5306864391636 L 305.07526245729264,696.6193945913317 L 305.0424418624777,696.7117597993603 L 305.018821987145,696.8068945700146 L 305.0046297834122,696.9038847986532 L 305.0000016173967,697.0017985524241 L 305.00498195893863,697.0996950247625 L 305.0195229543112,697.1966335751526 L 305.0434848860245,697.2916827672941 L 305.0766375153041,697.3839293188287 L 305.118662294346,697.4724868766352 L 305.13522897630577,697.5000528786351 L 305.11696841414647,697.5306864391636 L 305.07526245729264,697.6193945913317 L 305.0424418624777,697.7117597993603 L 305.018821987145,697.8068945700146 L 305.0046297834122,697.9038847986532 L 305.0000016173967,698.0017985524241 L 305.00498195893863,698.0996950247625 L 305.0195229543112,698.1966335751526 L 305.0434848860245,698.2916827672941 L 305.0766375153041,698.3839293188287 L 305.118662294346,698.4724868766352 L 305.13522897630577,698.5000528786351 L 305.11696841414647,698.5306864391636 L 305.07526245729264,698.6193945913317 L 305.0424418624777,698.7117597993603 L 305.018821987145,698.8068945700146 L 305.0046297834122,698.9038847986532 L 305.0000016173967,699.0017985524241 L 305.00498195893863,699.0996950247625 L 305.0195229543112,699.1966335751526 L 305.0434848860245,699.2916827672941 L 305.0766375153041,699.3839293188287 L 305.118662294346,699.4724868766352 L 305.13522897630577,699.5000528786351 L 305.11696841414647,699.5306864391636 L 305.07526245729264,699.6193945913317 L 305.0424418624777,699.7117597993603 L 305.018821987145,699.8068945700146 L 305.0046297834122,699.9038847986532 L 305.0000016173967,700.0017985524241 L 305.00498195893863,700.0996950247625 L 305.0195229543112,700.1966335751526 L 305.0434848860245,700.2916827672941 L 305.0766375153041,700.3839293188287 L 305.118662294346,700.4724868766352 L 305.13522891447406,700.5000527757506 L 305.1169723849763,700.5306789679702 L 305.07526552422803,700.6193871398406 L 305.0424440690039,700.7117524691965 L 305.018823387604,700.8068874543507 L 305.0046304417546,700.9038779810952 L 305.00008664276584,700.9999933130308 L 304.9964285942053,701.00000637749 L 304.898540306381,701.0051603493172 L 304.8016269123179,701.0198734173161 L 304.7066196218382,701.0440042083202 L 304.614431329624,701.0773208572724 L 304.5259478435044,701.1195032351441 L 304.44201937301096,701.1701460249508 L 304.3634523599864,701.2287626163151 L 304.2910017297424,701.2947897811491 L 304.22536363722384,701.3675930855336 L 304.1671687778785,701.4464729857906 L 304.116976327506,701.5306715501749 L 304.0752685693164,701.6193797415981 L 304.042446259825,701.7117451914072 L 304.01882477811097,701.8068803895223 L 304.0046310954408,701.9038712122378 L 304.00000159437377,702.0017857057444 L 304.0049807583057,702.0996830409754 L 304.0195207440421,702.1966225537324 L 304.0434818415082,702.291672783227 L 304.0766338161783,702.38392042219 L 304.11865812132595,702.4724790925484 L 304.13522894698735,702.5000525159342 L 304.116976327506,702.5306715501749 L 304.0752685693164,702.6193797415981 L 304.042446259825,702.7117451914072 L 304.01882477811097,702.8068803895223 L 304.0046310954408,702.9038712122378 L 304.00000159437377,703.0017857057444 L 304.0049807583057,703.0996830409754 L 304.0195207440421,703.1966225537324 L 304.0434818415082,703.291672783227 L 304.0766338161783,703.38392042219 L 304.11865812132595,703.4724790925484 L 304.13522894698735,703.5000525159342 L 304.116976327506,703.5306715501749 L 304.0752685693164,703.6193797415981 L 304.042446259825,703.7117451914072 L 304.01882477811097,703.8068803895223 L 304.0046310954408,703.9038712122378 L 304.000086338356,703.9999933605262 L 303.99644130367324,704.0000063321799 L 303.8985525552278,704.0051591001827 L 303.80163859073804,704.0198710537304 L 303.70663063304437,704.04400082922 L 303.61444159062887,704.0773165694762 L 303.52595728569867,704.1194981516102 L 303.4420279425347,704.1701402630035 L 303.36346001789207,704.2287562958584 L 303.2910084519523,704.2947830228951 L 303.2253694142858,704.367586009266 L 303.16717361452675,704.4464657086868 L 303.11698024203696,704.5306641852076 L 303.0752715927904,704.6193723960357 L 303.04244843510793,704.7117379654328 L 303.01882615877156,704.8068733749867 L 303.00463174452005,704.9038644915612 L 303.00008603607677,704.9999934075172 L 302.99645392300476,705.0000062873507 L 302.89856471721964,705.0051578600566 L 302.8016501863615,705.019868707045 L 302.7066415661964,705.0439974742103 L 302.61445177890874,705.0773123122024 L 302.52596666098185,705.1194931042296 L 302.44203645134127,705.1701345420081 L 302.3634676215491,705.2287500203023 L 302.29101512655126,705.2947763126349 L 302.22537515044013,705.3675789832364 L 302.1671784169359,705.4464584832349 L 302.1169841288664,705.5306568725056 L 302.0752745948793,705.6193651025925 L 302.0424505950175,705.7117307907222 L 302.01882752968993,705.8068664102088 L 302.0046323890408,705.9038578185528 L 302.0000857359058,705.9999934540111 L 301.99646645315545,706.0000062429962 L 301.89857679327713,706.0051566288415 L 301.80166170006555,706.0198663770796 L 301.7066524221213,706.0439941430343 L 301.6144618952341,706.0773080851262 L 301.5259759700626,706.1194880926178 L 301.44204490007377,706.1701288615295 L 301.36347517153195,706.2287437891702 L 301.2910217540434,706.2947696498587 L 301.2253808461199,706.3675720069114 L 301.1671831854682,706.4464513088868 L 301.1169879882874,706.5306496115147 L 301.07527757580925,706.6193578607159 L 301.04245273971605,706.7117236667315 L 301.0188288909689,706.8068594946609 L 301.00463302905104,706.903851192707 L 301.00008543782127,706.999993500015 L 300.9964788950673,707.0000061991092 L 300.89858878430783,707.0051554064419 L 300.8016731327153,707.019864063656 L 300.70666320163446,707.043990835439 L 300.61447194036447,707.0773038879275 L 300.5259852136397,707.1194831163959 L 300.4420532893661,707.170123221139 L 300.3634826684069,707.2287376019916 L 300.2910283349256,707.2947630340647 L 300.22538650175187,707.3675650797657 L 300.1671879204809,707.4464441851022 L 300.1169918205888,707.5306424016883 L 300.0752805358031,707.6193506698609 L 300.0424548693638,707.711716592925 L 300.0188302427097,707.8068526278229 L 300.0046336645978,707.9038446135257 L 300.0000851418013,707.9999935455356 L 299.9964912496691,708.0000061556834 L 299.8986006912065,708.0051541927634 L 299.80168448516355,708.0198617665986 L 299.7066739055397,708.0439875511748 L 299.61448191504877,708.0772997202907 L 299.5259943924021,708.1194781751906 L 299.44206161984334,708.1701176204135 L 299.3634901127324,708.2287314583035 L 299.2910348696878,708.2947564647575 L 299.225392117757,708.3675582012809 L 299.1671926223261,708.4464371113487 L 299.1169956260554,708.5306352424875 L 299.0752834750806,708.6193435294902 L 299.0424569841184,708.711709568774 L 299.0188315850123,708.806845809182 L 299.0046342957277,708.9038380805177 L 299.00008484782467,708.9999935905796 L 298.9965035178766,709.0000061127123 L 298.8986125148556,709.0051529877131 L 298.80169575825136,709.0198594857346 L 298.7066845346297,709.0439842899959 L 298.6144918200254,709.0772955819047 L 298.52600350702903,709.1194732686333 L 298.4420698921218,709.1701120589363 L 298.36349750505894,709.228725357649 L 298.2910413588132,709.2947499414488 L 298.2253976945503,709.3675513709462 L 298.16719729135116,709.4464300871008 L 298.1169994049681,709.5306281333811 L 298.07528639385856,709.619336439074 L 298.04245908413577,709.711702593758 L 298.0188329179752,709.8068390382326 L 298.00463492248656,709.9038315931987 L 298.0000845558703,709.9999936351537 L 297.996515700593,710.0000060701896 L 297.8986242561251,710.0051517911994 L 297.80170695280805,710.0198572208932 L 297.70669508968626,710.0439810516597 L 297.61450165602275,710.0772914724623 L 297.52601255819053,710.1194683963611 L 297.44207810680933,710.1701065362961 L 297.3635048459296,710.228719299577 L 297.2910478027781,710.2947434636571 L 297.225403232541,710.3675445882577 L 297.16720192789853,710.4464231118408 L 297.1170031576039,710.5306210738448 L 297.07528929235065,710.6193293980898 L 297.0424611695693,710.7116956673627 L 297.01883424169546,710.806832314476 L 297.0046355449197,710.9038251510909 L 297.0000842659172,710.9999936792645 L 296.9965277987087,711.000006028109 L 296.89863591587294,711.0051506031318 L 296.80171806965126,711.019854971906 L 296.70670557148003,711.0439778359269 L 296.61451142375864,711.0772873916612 L 296.526021546547,711.1194635580158 L 296.4420862645052,711.1701010520875 L 296.36351213587955,711.2287132836439 L 296.2910542020524,711.294737030908 L 296.2254087321326,711.3675378527188 L 296.1672065323058,711.446416185058 L 296.11700688423593,711.5306140633623 L 296.0752921707676,711.6193224060228 L 296.04246324057044,711.7116887890818 L 296.018835556269,711.8068256374206 L 296.00463616307167,711.9038187537234 L 296.0000015070284,712.001736103262 L 296.00497612388097,712.0996367700855 L 296.0195122111064,712.1965799985518 L 296.0434700872653,712.2916342333193 L 296.07661953424065,712.38388607093 L 296.11864200947,712.4724490369648 L 296.1352288318541,712.500051113481 z" /></g></svg>